<?xml version="1.0" encoding="utf-8"?>
<!-- Generator: Adobe Illustrator 26.0.3, SVG Export Plug-In . SVG Version: 6.00 Build 0)  -->
<svg version="1.0" id="katman_1" xmlns="http://www.w3.org/2000/svg" xmlns:xlink="http://www.w3.org/1999/xlink" x="0px" y="0px"
	 viewBox="0 0 600 450" style="enable-background:new 0 0 600 450;" xml:space="preserve">
<style type="text/css">
	.st0{fill:#41B59E;}
</style>
<g>
	<g>
		<g>
			<path class="st0" d="M367.6,63.9H182.1c-10.4,0-18.9,8.5-18.9,18.9v64.3c0,3.5,2.8,6.3,6.3,6.3s6.3-2.8,6.3-6.3V82.8
				c0-3.5,2.8-6.3,6.3-6.3h185.5c3.5,0,6.3,2.8,6.3,6.3v234.7c0,3.5-2.8,6.3-6.3,6.3H182.1c-3.5,0-6.3-2.8-6.3-6.3V200.3
				c0-3.5-2.8-6.3-6.3-6.3s-6.3,2.8-6.3,6.3v117.1c0,10.4,8.5,18.9,18.9,18.9h185.5c10.4,0,18.9-8.5,18.9-18.9V82.8
				C386.5,72.4,378,63.9,367.6,63.9z"/>
		</g>
	</g>
	<g>
		<g>
			<path class="st0" d="M174,170.9c-1.2-1.2-2.8-1.8-4.5-1.8c-1.7,0-3.3,0.7-4.5,1.8c-1.2,1.2-1.8,2.8-1.8,4.5
				c0,1.7,0.7,3.3,1.8,4.5c1.2,1.2,2.8,1.8,4.5,1.8c1.7,0,3.3-0.7,4.5-1.8c1.2-1.2,1.8-2.8,1.8-4.5
				C175.8,173.7,175.1,172.1,174,170.9z"/>
		</g>
	</g>
	<g>
		<g>
			<path class="st0" d="M199.2,350.9c-1.2-1.2-2.8-1.8-4.5-1.8c-1.7,0-3.3,0.7-4.5,1.8c-1.2,1.2-1.8,2.8-1.8,4.5
				c0,1.7,0.7,3.3,1.8,4.5c1.2,1.2,2.8,1.8,4.5,1.8c1.7,0,3.3-0.7,4.5-1.8c1.2-1.2,1.8-2.8,1.8-4.5
				C201.1,353.7,200.4,352.1,199.2,350.9z"/>
		</g>
	</g>
	<g>
		<g>
			<path class="st0" d="M405.5,89.1c-3.5,0-6.3,2.8-6.3,6.3v247.3c0,3.5-2.8,6.3-6.3,6.3H220c-3.5,0-6.3,2.8-6.3,6.3
				s2.8,6.3,6.3,6.3h172.9c10.4,0,18.9-8.5,18.9-18.9V95.5C411.8,92,409,89.1,405.5,89.1z"/>
		</g>
	</g>
	<g>
		<g>
			<path class="st0" d="M430.8,114.3c-3.5,0-6.3,2.8-6.3,6.3v247.3c0,3.5-2.8,6.3-6.3,6.3H220c-3.5,0-6.3,2.8-6.3,6.3
				c0,3.5,2.8,6.3,6.3,6.3h198.1c10.4,0,18.9-8.5,18.9-18.9V120.6C437.1,117.2,434.2,114.3,430.8,114.3z"/>
		</g>
	</g>
	<g>
		<g>
			<path class="st0" d="M265.4,110.6h-60.6c-3.5,0-6.3,2.8-6.3,6.3v60.6c0,3.5,2.8,6.3,6.3,6.3h60.6c3.5,0,6.3-2.8,6.3-6.3v-60.6
				C271.7,113.4,268.9,110.6,265.4,110.6z M259.1,171.1h-47.9v-47.9h47.9V171.1z"/>
		</g>
	</g>
	<g>
		<g>
			<path class="st0" d="M245.1,212.4c-2.5-2.5-6.5-2.5-8.9,0l-16.8,16.8l-7.8-7.8c-2.5-2.5-6.5-2.5-8.9,0c-2.5,2.5-2.5,6.5,0,8.9
				l12.3,12.3c1.2,1.2,2.8,1.8,4.5,1.8c1.7,0,3.3-0.7,4.5-1.8l21.2-21.2C247.6,218.8,247.6,214.8,245.1,212.4z"/>
		</g>
	</g>
	<g>
		<g>
			<path class="st0" d="M348.5,221h-73.6c-3.5,0-6.3,2.8-6.3,6.3c0,3.5,2.8,6.3,6.3,6.3h73.6c3.5,0,6.3-2.8,6.3-6.3
				C354.8,223.8,351.9,221,348.5,221z"/>
		</g>
	</g>
	<g>
		<g>
			<path class="st0" d="M344.9,110.6h-44.2c-3.5,0-6.3,2.8-6.3,6.3s2.8,6.3,6.3,6.3h44.2c3.5,0,6.3-2.8,6.3-6.3
				S348.4,110.6,344.9,110.6z"/>
		</g>
	</g>
	<g>
		<g>
			<path class="st0" d="M344.9,140.8h-44.2c-3.5,0-6.3,2.8-6.3,6.3c0,3.5,2.8,6.3,6.3,6.3h44.2c3.5,0,6.3-2.8,6.3-6.3
				S348.4,140.8,344.9,140.8z"/>
		</g>
	</g>
	<g>
		<g>
			<path class="st0" d="M344.9,171.1h-44.2c-3.5,0-6.3,2.8-6.3,6.3s2.8,6.3,6.3,6.3h44.2c3.5,0,6.3-2.8,6.3-6.3
				S348.4,171.1,344.9,171.1z"/>
		</g>
	</g>
	<g>
		<g>
			<path class="st0" d="M245.1,260.6c-2.5-2.5-6.5-2.5-8.9,0l-16.8,16.8l-7.8-7.8c-2.5-2.5-6.5-2.5-8.9,0c-2.5,2.5-2.5,6.5,0,8.9
				l12.3,12.3c1.2,1.2,2.8,1.8,4.5,1.8c1.7,0,3.3-0.7,4.5-1.8l21.2-21.2C247.6,267,247.6,263,245.1,260.6z"/>
		</g>
	</g>
	<g>
		<g>
			<path class="st0" d="M348.5,268.9h-73.6c-3.5,0-6.3,2.8-6.3,6.3c0,3.5,2.8,6.3,6.3,6.3h73.6c3.5,0,6.3-2.8,6.3-6.3
				C354.8,271.7,351.9,268.9,348.5,268.9z"/>
		</g>
	</g>
</g>
</svg>
